<?xml version="1.0" encoding="utf-8"?>
<!-- Generator: Adobe Illustrator 27.2.0, SVG Export Plug-In . SVG Version: 6.00 Build 0)  -->
<svg version="1.1" id="Layer_1" xmlns="http://www.w3.org/2000/svg" xmlns:xlink="http://www.w3.org/1999/xlink" x="0px" y="0px"
	 viewBox="0 0 300 300" style="enable-background:new 0 0 300 300;" xml:space="preserve">
<style type="text/css">
	.st0{fill:none;stroke:#000000;stroke-width:7;stroke-miterlimit:10;}
	.st1{fill:#FFFFFF;stroke:#000000;stroke-width:8;stroke-miterlimit:10;}
	.st2{fill:none;stroke:#000000;stroke-width:8;stroke-miterlimit:10;}
</style>
<ellipse transform="matrix(0.7071 -0.7071 0.7071 0.7071 -29.4286 162.9866)" class="st0" cx="182.03" cy="117.02" rx="121.27" ry="79.42"/>
<path class="st0" d="M16.56,281.42L16.56,281.42c7.54,7.54,19.78,7.54,27.32,0l65.96-65.96l-27.32-27.32L16.56,254.1
	C9.01,261.64,9.01,273.87,16.56,281.42z"/>
<path class="st1" d="M91.88,111.65c31.71,31.78,63.41,63.57,95.12,95.35"/>
<path class="st2" d="M134.81,53.7c2.3,15.05,4.6,30.11,6.9,45.16c16.1,2.26,32.2,4.52,48.29,6.77c2.3,15.81,4.6,31.62,6.9,47.42
	c16.86,3.01,33.73,6.02,50.59,9.03"/>
<path class="st2" d="M178.81,24.72c3.66,0.76,8.69,2.05,14.37,4.36c5.24,2.12,14.15,5.73,21.55,13.07
	c7.3,7.23,9.84,14.8,14.37,28.31c3.76,11.2,2.77,12.76,4.79,17.42c3.75,8.66,14,19.12,43.11,26.13"/>
</svg>
