<?xml version="1.0" encoding="utf-8"?>
<!-- Generator: Adobe Illustrator 27.2.0, SVG Export Plug-In . SVG Version: 6.00 Build 0)  -->
<svg version="1.1" id="Layer_1" xmlns="http://www.w3.org/2000/svg" xmlns:xlink="http://www.w3.org/1999/xlink" x="0px" y="0px"
	 viewBox="0 0 300 300" style="enable-background:new 0 0 300 300;" xml:space="preserve">
<style type="text/css">
	.st0{fill:none;stroke:#000000;stroke-width:10;stroke-miterlimit:10;}
	.st1{stroke:#000000;stroke-miterlimit:10;}
</style>
<path class="st0" d="M64.9,279H38.84c-1.49,0-2.71-1.22-2.71-2.71V113.81c0-1.49,1.22-2.71,2.71-2.71H64.9
	c1.49,0,2.71,1.22,2.71,2.71v162.48C67.61,277.78,66.39,279,64.9,279z"/>
<path class="st0" d="M130.61,271.37h-26.31c-1.42,0-2.59-1.16-2.59-2.59V121.19c0-1.42,1.16-2.59,2.59-2.59h26.31
	c1.42,0,2.59,1.16,2.59,2.59v147.59C133.2,270.2,132.04,271.37,130.61,271.37z"/>
<path class="st0" d="M195.62,263.74h-26.57c-1.35,0-2.45-1.1-2.45-2.45V128.63c0-1.35,1.1-2.45,2.45-2.45h26.57
	c1.35,0,2.45,1.1,2.45,2.45v132.65C198.07,262.63,196.97,263.74,195.62,263.74z"/>
<path class="st0" d="M260.99,256.1h-26.84c-1.28,0-2.32-1.04-2.32-2.32V135.61c0-1.28,1.04-2.32,2.32-2.32h26.84
	c1.28,0,2.32,1.04,2.32,2.32v118.18C263.31,255.06,262.27,256.1,260.99,256.1z"/>
<rect x="70.47" y="165.47" class="st1" width="26.71" height="13.36"/>
<rect x="70.47" y="211.26" class="st1" width="26.71" height="13.36"/>
<rect x="133.43" y="165.47" class="st1" width="33.07" height="13.36"/>
<rect x="133.43" y="211.26" class="st1" width="33.07" height="13.36"/>
<rect x="198.31" y="165.47" class="st1" width="33.19" height="13.36"/>
<rect x="202.12" y="211.26" class="st1" width="26.71" height="13.36"/>
<circle class="st1" cx="93.15" cy="37.05" r="15.26"/>
<path class="st1" d="M100.93,40.83V34.7c0-1.62,1.33-2.95,2.95-2.95h114.38c1.62,0,2.95,1.33,2.95,2.95v6.13
	c0,1.62-1.33,2.95-2.95,2.95H103.88C102.26,43.78,100.93,42.45,100.93,40.83z"/>
<circle class="st1" cx="93.15" cy="79.14" r="15.26"/>
<path class="st1" d="M100.92,82.92v-6.13c0-1.62,1.33-2.95,2.95-2.95h114.38c1.62,0,2.95,1.33,2.95,2.95v6.13
	c0,1.62-1.33,2.95-2.95,2.95H103.87C102.25,85.87,100.92,84.54,100.92,82.92z"/>
</svg>
