<?xml version="1.0" encoding="utf-8"?>
<!-- Generator: Adobe Illustrator 27.2.0, SVG Export Plug-In . SVG Version: 6.00 Build 0)  -->
<svg version="1.1" id="Layer_1" xmlns="http://www.w3.org/2000/svg" xmlns:xlink="http://www.w3.org/1999/xlink" x="0px" y="0px"
	 viewBox="0 0 300 300" style="enable-background:new 0 0 300 300;" xml:space="preserve">
<style type="text/css">
	.st0{stroke:#000000;stroke-miterlimit:10;}
	.st1{fill:none;stroke:#000000;stroke-width:9;stroke-miterlimit:10;}
</style>
<path class="st0" d="M65.24,267.15h-0.05c-3.74,0-6.8-3.06-6.8-6.8V16.45c0-3.74,3.06-6.8,6.8-6.8h0.05c3.74,0,6.8,3.06,6.8,6.8
	v243.9C72.04,264.09,68.98,267.15,65.24,267.15z"/>
<path class="st0" d="M61.14,264.78L61.14,264.78c-2.38-2.91-1.94-7.23,0.96-9.61L275.12,80.93c2.91-2.38,7.23-1.94,9.61,0.96v0
	c2.38,2.91,1.94,7.23-0.96,9.61L70.75,265.75C67.84,268.12,63.52,267.69,61.14,264.78z"/>
<path class="st0" d="M25.22,266.32v-0.29c0-3.68,3.01-6.68,6.68-6.68h68.57c3.68,0,6.68,3.01,6.68,6.68v0.29
	c0,3.68-3.01,6.68-6.68,6.68H31.9C28.23,273,25.22,269.99,25.22,266.32z"/>
<path class="st1" d="M70.09,38.91c3.19,0.01,8.06,0.01,14.01,0c18.06-0.05,20.45-0.23,24.01,0c14.7,0.94,25.58,7.36,30.02,9.75
	c4.3,2.32,7.07,4.29,12.01,7.8c13.76,9.78,14.96,13.41,24.01,19.51c7.4,4.99,13.6,7.23,26.01,11.7c6.52,2.35,15.68,5.61,28.01,7.8
	c8.77,1.56,21.1,2.93,36.02,1.95"/>
<path class="st0" d="M104.23,202.77L104.23,202.77c-3.76,0-6.83-3.07-6.83-6.83V65.25c0-3.76,3.07-6.83,6.83-6.83h0
	c3.76,0,6.83,3.07,6.83,6.83v130.7C111.05,199.7,107.98,202.77,104.23,202.77z"/>
<path class="st0" d="M143.24,171.56L143.24,171.56c-3.76,0-6.83-3.07-6.83-6.83V82.8c0-3.76,3.07-6.83,6.83-6.83h0
	c3.76,0,6.83,3.07,6.83,6.83v81.93C150.07,168.49,147,171.56,143.24,171.56z"/>
<path class="st0" d="M182.26,144.25L182.26,144.25c-3.76,0-6.83-3.07-6.83-6.83v-29.26c0-3.76,3.07-6.83,6.83-6.83h0
	c3.76,0,6.83,3.07,6.83,6.83v29.26C189.08,141.18,186.01,144.25,182.26,144.25z"/>
</svg>
