<?xml version="1.0" encoding="utf-8"?>
<!-- Generator: Adobe Illustrator 27.2.0, SVG Export Plug-In . SVG Version: 6.00 Build 0)  -->
<svg version="1.1" id="Layer_1" xmlns="http://www.w3.org/2000/svg" xmlns:xlink="http://www.w3.org/1999/xlink" x="0px" y="0px"
	 viewBox="0 0 300 300" style="enable-background:new 0 0 300 300;" xml:space="preserve">
<style type="text/css">
	.st0{fill:none;stroke:#000000;stroke-width:7;stroke-miterlimit:10;}
	.st1{stroke:#000000;stroke-miterlimit:10;}
</style>
<path class="st0" d="M39.75,175.7c3.46,0.75,8.29,1.6,14.11,2.02c5.35,0.38,10.84,0.33,14.11,0c8.71-0.89,23.9-6.13,32.25-20.16
	c11.76-19.76,0.59-41.25,0-42.33c7.77-6.76,15.25-10.26,20.16-12.09c7.26-2.72,13.22-3.44,18.14-4.03c6.82-0.82,13.53-1.63,22.17,0
	c4.02,0.76,11.89,2.33,20.16,8.06c1.95,1.35,7.27,5.26,12.09,12.09c5.12,7.26,6.95,13.95,8.06,18.14c0.96,3.61,2.8,10.84,2.02,20.16
	c-1.02,12.13-5.89,20.78-10.08,28.22c-2.94,5.22-5.87,9.29-8.06,12.09c-1.99-0.66-4.73-1.45-8.06-2.02c-3.27-0.56-9.96-1.63-18.14,0
	c-8.8,1.76-14.74,5.74-18.14,8.06c-4.75,3.25-10.18,6.97-14.11,14.11c-5.12,9.3-4.39,18.37-4.03,22.17
	c0.8,8.5,4.01,14.79,6.05,18.14c-1.43,1.03-3.49,2.46-6.05,4.03c-2.8,1.72-8.97,5.3-22.17,10.08c-9.68,3.5-14.52,5.26-20.16,6.05
	c-4.4,0.62-10.53,1.43-18.14,0c-14.35-2.69-23.39-11.34-26.2-14.11c-2.24-2.2-8.08-8.34-12.09-18.14c-0.67-1.64-3.4-8.54-4.03-18.14
	c-0.12-1.91-0.57-10.02,2.02-20.16C25.58,192.38,34.28,181.49,39.75,175.7z"/>
<path class="st0" d="M40.1,178c3.2,1.67,7.55,4.35,11.84,8.45c6.11,5.84,8.91,11.51,9.47,12.67c5.37,11.19,3.15,21.66,2.37,25.34
	c-4.7,22.19-27.01,33.98-30.77,35.9"/>
<path class="st1" d="M284.58,17.42l-2.45-2.45c-2.5-2.5-6.59-2.5-9.09,0L135,153.01c-2.5,2.5-2.5,6.59,0,9.09l2.45,2.45
	c2.5,2.5,6.59,2.5,9.09,0L284.58,26.51C287.08,24.01,287.08,19.92,284.58,17.42z"/>
<path class="st1" d="M84.32,98.34l-2.19,2.19c-2.48,2.48-6.53,2.48-9.01,0L15.14,42.56c-2.48-2.48-2.48-6.53,0-9.01l2.19-2.19
	c2.48-2.48,6.53-2.48,9.01,0l57.98,57.98C86.8,91.81,86.8,95.87,84.32,98.34z"/>
<path class="st1" d="M269.06,282.95l-2.19,2.19c-2.48,2.48-6.53,2.48-9.01,0l-57.98-57.98c-2.48-2.48-2.48-6.53,0-9.01l2.19-2.19
	c2.48-2.48,6.53-2.48,9.01,0l57.98,57.98C271.54,276.42,271.54,280.47,269.06,282.95z"/>
<path class="st1" d="M266.56,69.83l-2.74,2.74c-1.85,1.85-4.88,1.85-6.72,0l-30.03-30.03c-1.85-1.85-1.85-4.88,0-6.72l2.74-2.74
	c1.85-1.85,4.88-1.85,6.72,0l30.03,30.03C268.4,64.95,268.4,67.98,266.56,69.83z"/>
<path class="st1" d="M286.42,50.78l-2.74,2.74c-1.85,1.85-4.88,1.85-6.72,0l-30.03-30.03c-1.85-1.85-1.85-4.88,0-6.72l2.74-2.74
	c1.85-1.85,4.88-1.85,6.72,0l30.03,30.03C288.27,45.91,288.27,48.93,286.42,50.78z"/>
</svg>
