<?xml version="1.0" encoding="utf-8"?>
<!-- Generator: Adobe Illustrator 27.2.0, SVG Export Plug-In . SVG Version: 6.00 Build 0)  -->
<svg version="1.1" id="Layer_1" xmlns="http://www.w3.org/2000/svg" xmlns:xlink="http://www.w3.org/1999/xlink" x="0px" y="0px"
	 viewBox="0 0 300 300" style="enable-background:new 0 0 300 300;" xml:space="preserve">
<style type="text/css">
	.st0{fill:none;stroke:#000000;stroke-width:17;stroke-miterlimit:10;}
	.st1{stroke:#000000;stroke-miterlimit:10;}
</style>
<circle class="st0" cx="149.66" cy="131" r="115.59"/>
<circle class="st1" cx="118.03" cy="127.72" r="17.45"/>
<circle class="st1" cx="181.28" cy="127.72" r="17.45"/>
<path class="st1" d="M115.52,137.81l-4.82-3.55c-1.72-1.27-4.16-0.9-5.43,0.82L1.75,275.63c-1.27,1.72-0.9,4.16,0.82,5.43l4.82,3.55
	c1.72,1.27,4.16,0.9,5.43-0.82l103.51-140.55C117.6,141.51,117.23,139.07,115.52,137.81z"/>
<path class="st1" d="M183.48,137.14l4.82-3.55c1.72-1.27,4.16-0.9,5.43,0.82l103.51,140.55c1.27,1.72,0.9,4.16-0.82,5.43l-4.82,3.55
	c-1.72,1.27-4.16,0.9-5.43-0.82L182.66,142.57C181.4,140.85,181.77,138.41,183.48,137.14z"/>
</svg>
