<?xml version="1.0" encoding="utf-8"?>
<!-- Generator: Adobe Illustrator 27.2.0, SVG Export Plug-In . SVG Version: 6.00 Build 0)  -->
<svg version="1.1" id="Layer_1" xmlns="http://www.w3.org/2000/svg" xmlns:xlink="http://www.w3.org/1999/xlink" x="0px" y="0px"
	 viewBox="0 0 300 300" style="enable-background:new 0 0 300 300;" xml:space="preserve">
<style type="text/css">
	.st0{stroke:#000000;stroke-miterlimit:10;}
</style>
<path class="st0" d="M275.55,105.49c-3,3.15-8.03,3.27-11.17,0.27l-72.82-69.39c-3.15-3-3.27-8.03-0.27-11.17
	c3-3.15,8.03-3.27,11.17-0.27l72.82,69.39C278.43,97.32,278.55,102.35,275.55,105.49z"/>
<path class="st0" d="M256.7,94.17c-9.87,0.2-18.12,1.03-24.3,1.87c-8.88,1.2-13.32,1.8-18.69,3.74c-6.68,2.41-16.21,7.17-16.82,7.48
	c0,0-2.81,1.4-3.74,1.87c-1.25,0.62-2.49,1.25-3.74,1.87c-0.62-0.62-1.25-1.25-1.87-1.87c4.04-6.23,8.28-14.35,11.21-24.3
	c0.68-2.31,3.68-12.47,3.74-22.43c0-0.36,0-0.7,0-11.21c0-0.29,0-7.19,0-7.48c-4.36-3.74-8.72-7.48-13.08-11.21
	c0.62,12.89-0.51,23.73-1.87,31.78c-0.81,4.79-2.41,12.85-5.61,22.43c-2.84,8.52-5.83,14.92-9.35,22.43
	c-2.91,6.22-5.54,11.32-7.48,14.95c-26.79,26.17-53.58,52.34-80.37,78.5c-14.61,14.64-29.22,29.29-43.83,43.93
	c3.4,3.42,6.79,6.85,10.19,10.27c6.23-6.23,12.46-12.46,18.69-18.69c5.61-5.61,11.21-11.21,16.82-16.82
	c0.49,3.3,1.55,7.22,3.74,11.21c2.48,4.53,5.4,7.42,7.48,9.35c2.2,2.05,5.72,5.26,11.21,7.48c2.98,1.05,5.57,1.58,7.48,1.87
	c2.88,0.44,6.61,0.97,11.21,0c2.88-0.6,4.94-1.55,5.61-1.87c2.52-1.2,4.38-2.64,5.61-3.74c0.62-0.62,1.25-1.25,1.87-1.87
	c0.62-0.62,1.25-1.25,1.87-1.87c18.07-18.07,36.14-36.14,54.2-54.2c1.03-1.53,2.56-4.07,3.74-7.48c3.35-9.71,1.08-18.5,0-22.43
	c-0.77-2.82-1.59-5.82-3.74-9.35c-0.81-1.33-7.81-12.48-18.69-13.08c-0.8-0.04-1.45-0.02-1.87,0c0.42-0.45,1.06-1.11,1.87-1.87
	c0,0,3.24-3.04,7.48-5.61c17.76-10.76,35.51-14.95,35.51-14.95c6.5-1.53,13.05-2.27,26.17-3.74c8.53-0.96,15.63-1.53,20.56-1.87
	C264.18,102.89,260.44,98.53,256.7,94.17z M181,154.91L181,154.91c7.19,7.19,7.19,18.96,0,26.15l-48.61,48.61
	c-7.19,7.19-18.96,7.19-26.15,0v0c-7.19-7.19-7.19-18.96,0-26.15l48.61-48.61C162.04,147.72,173.81,147.72,181,154.91z"/>
<path class="st0" d="M57.39,274.79L57.39,274.79c-2.94,2.94-7.76,2.94-10.7,0l-22.94-22.94c-2.94-2.94-2.94-7.76,0-10.7l0,0
	c2.94-2.94,7.76-2.94,10.7,0l22.94,22.94C60.33,267.04,60.33,271.85,57.39,274.79z"/>
<path class="st0" d="M99.44,201.39L99.44,201.39c-2.54,2.54-6.71,2.54-9.25,0l-14.54-14.54c-2.54-2.54-2.54-6.71,0-9.25l0,0
	c2.54-2.54,6.71-2.54,9.25,0l14.54,14.54C101.99,194.68,101.99,198.84,99.44,201.39z"/>
<path class="st0" d="M125.65,175.54L125.65,175.54c-2.54,2.54-6.71,2.54-9.25,0L101.86,161c-2.54-2.54-2.54-6.71,0-9.25l0,0
	c2.54-2.54,6.71-2.54,9.25,0l14.54,14.54C128.2,168.83,128.2,172.99,125.65,175.54z"/>
<path class="st0" d="M154.84,147.9L154.84,147.9c-2.54,2.54-6.71,2.54-9.25,0l-14.54-14.54c-2.54-2.54-2.54-6.71,0-9.25v0
	c2.54-2.54,6.71-2.54,9.25,0l14.54,14.54C157.39,141.19,157.39,145.35,154.84,147.9z"/>
</svg>
