<?xml version="1.0" encoding="utf-8"?>
<!-- Generator: Adobe Illustrator 27.2.0, SVG Export Plug-In . SVG Version: 6.00 Build 0)  -->
<svg version="1.1" id="Layer_1" xmlns="http://www.w3.org/2000/svg" xmlns:xlink="http://www.w3.org/1999/xlink" x="0px" y="0px"
	 viewBox="0 0 300 300" style="enable-background:new 0 0 300 300;" xml:space="preserve">
<style type="text/css">
	.st0{fill:none;stroke:#000000;stroke-width:10;stroke-miterlimit:10;}
	.st1{fill:none;stroke:#000000;stroke-width:9;stroke-miterlimit:10;}
	.st2{stroke:#000000;stroke-miterlimit:10;}
</style>
<path class="st0" d="M33.64,258c0.26-131.65,0.22-185.99,0-189.98c-0.02-0.27-0.11-1.72,0-3.65c0.04-0.77,0.28-4.58,1.83-9.13
	c2.16-6.38,5.74-10.86,7.31-12.79c5.51-6.78,11.49-10.23,12.79-10.96c6.43-3.61,12.04-4.35,20.09-5.48
	c3.4-0.47,9.46-1.29,17.35-0.91c11.74,0.56,24.37,1.17,35.62,10.05c9.4,7.42,13.5,17.2,14.61,20.09c1.06,2.77,2.22,5.8,2.74,10.05
	c0.64,5.28-0.18,8.57,0.91,15.53c0.31,1.94,0.66,3.52,0.91,4.57c0.32,0.95,0.82,2.26,1.6,3.73c0.38,0.72,2,3.69,5.7,7.23
	c2.05,1.96,5.57,5.25,10.96,7.31c4.02,1.53,7.41,1.74,9.13,1.83c14.13,0.73,33.12-0.39,47.49,0c11.8,0.32,17.82,0.54,23.75,3.65
	c10.87,5.7,15.96,16.05,17.35,19.18c3.25,7.29,3.61,13.73,3.65,16.44c0.61,37.75,1.22,75.5,1.83,113.25
	C190.74,258,112.19,258,33.64,258z"/>
<line class="st1" x1="36.38" y1="185.85" x2="266.54" y2="185.85"/>
<path class="st2" d="M61.76,225.77h4.04c2.4,0,4.37-1.97,4.37-4.37v-31.44c0-2.4-1.97-4.37-4.37-4.37h-4.04
	c-2.4,0-4.37,1.97-4.37,4.37v31.44C57.39,223.81,59.36,225.77,61.76,225.77z"/>
<path class="st2" d="M83.68,225.77h4.04c2.4,0,4.37-1.97,4.37-4.37v-31.44c0-2.4-1.97-4.37-4.37-4.37h-4.04
	c-2.4,0-4.37,1.97-4.37,4.37v31.44C79.31,223.81,81.28,225.77,83.68,225.77z"/>
<path class="st2" d="M127.52,225.77h4.04c2.4,0,4.37-1.97,4.37-4.37v-31.44c0-2.4-1.97-4.37-4.37-4.37h-4.04
	c-2.4,0-4.37,1.97-4.37,4.37v31.44C123.15,223.81,125.12,225.77,127.52,225.77z"/>
<path class="st2" d="M149.44,225.77h4.04c2.4,0,4.37-1.97,4.37-4.37v-31.44c0-2.4-1.97-4.37-4.37-4.37h-4.04
	c-2.4,0-4.37,1.97-4.37,4.37v31.44C145.07,223.81,147.04,225.77,149.44,225.77z"/>
<path class="st2" d="M171.36,225.77h4.04c2.4,0,4.37-1.97,4.37-4.37v-31.44c0-2.4-1.97-4.37-4.37-4.37h-4.04
	c-2.4,0-4.37,1.97-4.37,4.37v31.44C166.99,223.81,168.96,225.77,171.36,225.77z"/>
<path class="st2" d="M215.2,225.77h4.04c2.4,0,4.37-1.97,4.37-4.37v-31.44c0-2.4-1.97-4.37-4.37-4.37h-4.04
	c-2.4,0-4.37,1.97-4.37,4.37v31.44C210.83,223.81,212.8,225.77,215.2,225.77z"/>
<path class="st2" d="M237.12,225.77h4.04c2.4,0,4.37-1.97,4.37-4.37v-31.44c0-2.4-1.97-4.37-4.37-4.37h-4.04
	c-2.4,0-4.37,1.97-4.37,4.37v31.44C232.75,223.81,234.72,225.77,237.12,225.77z"/>
</svg>
