<?xml version="1.0" encoding="utf-8"?>
<!-- Generator: Adobe Illustrator 27.2.0, SVG Export Plug-In . SVG Version: 6.00 Build 0)  -->
<svg version="1.1" id="Layer_1" xmlns="http://www.w3.org/2000/svg" xmlns:xlink="http://www.w3.org/1999/xlink" x="0px" y="0px"
	 viewBox="0 0 300 300" style="enable-background:new 0 0 300 300;" xml:space="preserve">
<style type="text/css">
	.st0{fill:none;stroke:#000000;stroke-width:10;stroke-miterlimit:10;}
</style>
<path class="st0" d="M168.46,150.77c19.63-19.63,39.27-39.27,58.9-58.9c5.24,0,10.47,0,15.71,0c9.82-9.82,19.63-19.63,29.45-29.45
	c-12.44-12.44-24.87-24.87-37.31-37.31c-9.16,9.16-18.33,18.33-27.49,27.49c0,4.58,0,9.16,0,13.74
	c-20.29,20.94-40.58,41.89-60.87,62.83c0,0.65,0,1.31,0,1.96c0.38,2.01,1.88,8.52,7.85,13.74
	C160.26,149.73,166.35,150.57,168.46,150.77z"/>
<line class="st0" x1="86.98" y1="183.17" x2="112.5" y2="208.69"/>
<line class="st0" x1="67.18" y1="204.14" x2="92.7" y2="229.66"/>
<path class="st0" d="M44.76,253.85c-3.81-4.44-8.89-10.99-13.74-19.63c-3.47-6.18-6.14-10.88-7.85-17.67
	c-3.47-13.78-0.64-25.09,0-27.49c1.18-4.44,5.26-17.39,17.67-27.49c11.04-8.97,22.56-10.73,29.45-11.78c8.93-1.36,16.49-0.77,21.6,0
	c0-0.24,0-5.65,0-5.89c0-9.78,0-9.73,0-9.82c0.16-5.85,2.49-13.69,7.85-19.63c3.68-4.07,7.6-5.89,11.78-7.85
	c4.07-1.91,9.08-4.26,15.71-3.93c3.22,0.16,8.32,0.41,11.78,3.93c2.7,2.74,2.61,5.38,3.93,13.74c1.34,8.54,2.28,14.55,5.89,19.63
	c4.04,5.71,10,8.23,13.74,9.82c6.19,2.62,13.79,3.92,19.63,7.85c1.02,0.68,2.63,1.88,3.93,3.93c1.13,1.78,1.66,3.64,1.96,5.89
	c0.59,4.38,1.44,10.75-1.96,17.67c-3.48,7.08-9.29,10.4-11.78,11.78c-12.04,6.67-24.69,2.88-27.49,1.96c0,2.62,0,5.24,0,7.85
	c0,2.62,0,5.24,0,7.85c0,13.74,0,13.74,0,13.74c-0.53,10.92-6.31,19.39-7.85,21.6c-4.76,6.81-10.18,10.24-15.71,13.74
	c-4.41,2.79-13.02,8.12-25.52,9.82c-2,0.27-8.21,1.01-15.71,0C63.12,270.94,50,259.16,44.76,253.85z"/>
</svg>
