<?xml version="1.0" encoding="utf-8"?>
<!-- Generator: Adobe Illustrator 27.2.0, SVG Export Plug-In . SVG Version: 6.00 Build 0)  -->
<svg version="1.1" id="Layer_1" xmlns="http://www.w3.org/2000/svg" xmlns:xlink="http://www.w3.org/1999/xlink" x="0px" y="0px"
	 viewBox="0 0 300 300" style="enable-background:new 0 0 300 300;" xml:space="preserve">
<style type="text/css">
	.st0{stroke:#000000;stroke-miterlimit:10;}
	.st1{fill:none;stroke:#000000;stroke-width:13;stroke-miterlimit:10;}
</style>
<path class="st0" d="M129.52,198.18H69.56c-6.06,0-11.01-4.96-11.01-11.01v-39.8c0-6.06,4.96-11.01,11.01-11.01h59.96
	c6.06,0,11.01,4.96,11.01,11.01v39.8C140.53,193.22,135.57,198.18,129.52,198.18z"/>
<path class="st0" d="M119.44,260H77.42c-3.07,0-5.58-2.51-5.58-5.58v-4.3c0-3.07,2.51-5.58,5.58-5.58h42.02
	c3.07,0,5.58,2.51,5.58,5.58v4.3C125.02,257.49,122.51,260,119.44,260z"/>
<path class="st0" d="M98.44,251.17h-0.02c-3.65,0-6.64-2.99-6.64-6.64v-57.39c0-3.65,2.99-6.64,6.64-6.64h0.02
	c3.65,0,6.64,2.99,6.64,6.64v57.39C105.08,248.18,102.09,251.17,98.44,251.17z"/>
<ellipse class="st1" cx="183.74" cy="203.7" rx="49.85" ry="49.68"/>
<rect x="34.17" y="92.19" class="st0" width="15.51" height="154.56"/>
<path class="st0" d="M58.01,260H25.84c-2.73,0-4.96-2.23-4.96-4.96v-5.53c0-2.73,2.23-4.96,4.96-4.96h32.17
	c2.73,0,4.96,2.23,4.96,4.96v5.53C62.98,257.77,60.74,260,58.01,260z"/>
<path class="st0" d="M38.44,95.25L38.44,95.25c-3.94-1.64-5.81-6.19-4.17-10.11l11.35-27.12c1.64-3.92,6.21-5.79,10.14-4.16l0,0
	c3.94,1.64,5.81,6.19,4.17,10.11L48.58,91.09C46.94,95.02,42.38,96.89,38.44,95.25z"/>
<path class="st0" d="M73.41,105.24L7.39,91.68c-4.31-0.89-7.12-5.13-6.23-9.43l0,0c0.89-4.3,5.15-7.09,9.46-6.21L76.65,89.6
	c4.31,0.89,7.12,5.13,6.23,9.43l0,0C81.98,103.33,77.73,106.12,73.41,105.24z"/>
<rect x="251.32" y="92.19" transform="matrix(-1 -4.456492e-11 4.456492e-11 -1 518.145 338.9419)" class="st0" width="15.51" height="154.56"/>
<path class="st0" d="M242.99,260h32.17c2.73,0,4.96-2.23,4.96-4.96v-5.53c0-2.73-2.23-4.96-4.96-4.96h-32.17
	c-2.73,0-4.96,2.23-4.96,4.96v5.53C238.02,257.77,240.26,260,242.99,260z"/>
<path class="st0" d="M262.56,95.25L262.56,95.25c3.94-1.64,5.81-6.19,4.17-10.11l-11.35-27.12c-1.64-3.92-6.21-5.79-10.14-4.16v0
	c-3.94,1.64-5.81,6.19-4.17,10.11l11.35,27.12C254.06,95.02,258.62,96.89,262.56,95.25z"/>
<path class="st0" d="M227.59,105.24l66.02-13.56c4.31-0.89,7.12-5.13,6.23-9.43v0c-0.89-4.3-5.15-7.09-9.46-6.21L224.35,89.6
	c-4.31,0.89-7.12,5.13-6.23,9.43v0C219.02,103.33,223.27,106.12,227.59,105.24z"/>
</svg>
