<?xml version="1.0" encoding="utf-8"?>
<!-- Generator: Adobe Illustrator 27.2.0, SVG Export Plug-In . SVG Version: 6.00 Build 0)  -->
<svg version="1.1" id="Layer_1" xmlns="http://www.w3.org/2000/svg" xmlns:xlink="http://www.w3.org/1999/xlink" x="0px" y="0px"
	 viewBox="0 0 400 100" style="enable-background:new 0 0 400 100;" xml:space="preserve">
<style type="text/css">
	.st0{fill:none;stroke:#FFFFFF;stroke-width:3;stroke-miterlimit:10;}
	.st1{fill:#FFFFFF;stroke:#FFFFFF;}
	.st2{fill:#FFFFFF;}
</style>
<g>
	<g>
	</g>
</g>
<g>
	<polygon class="st0" points="38.77,39.12 29,39.12 29,95.61 56.71,95.61 56.71,86.55 38.77,86.55 	"/>
</g>
<rect x="39.4" y="15.44" class="st0" width="45.36" height="70.89"/>
<g>
	<polygon class="st0" points="84.77,62.14 94.54,62.14 94.54,5.65 66.84,5.65 66.84,14.71 84.77,14.71 	"/>
</g>
<rect x="28.19" y="4.63" class="st0" width="66.81" height="91.26"/>
<g>
	<g>
		<path class="st1" d="M61.88,86.07v-2.98c6.78-0.64,7.51-1.17,7.51-8.4V51.31c0-4.46,0-8.93,0-13.39
			c4.49,1.91,9.39,3.29,14.81,4.25v2.55c-6.26,1.06-6.57,1.49-6.57,8.08v21.89c0,7.23,0.73,7.76,7.3,8.4v2.98H61.88z M68.66,21.87
			c0-3.4,2.4-5.85,5.32-5.85c3.03,0,5.63,2.44,5.63,5.85c0,2.98-2.61,5.63-5.53,5.63C71.06,27.51,68.66,24.85,68.66,21.87z"/>
	</g>
</g>
<g>
	<g>
		<path class="st1" d="M62.69,15.62v2.97c-6.78,0.64-7.51,1.17-7.51,8.39v23.36c0,4.46,0,8.92,0,13.38
			c-4.49-1.91-9.39-3.29-14.81-4.25v-2.55c6.26-1.06,6.57-1.49,6.57-8.07V26.98c0-7.22-0.73-7.75-7.3-8.39v-2.97H62.69z
			 M55.91,79.75c0,3.4-2.4,5.84-5.32,5.84c-3.03,0-5.63-2.44-5.63-5.84c0-2.97,2.61-5.63,5.53-5.63
			C53.51,74.12,55.91,76.78,55.91,79.75z"/>
	</g>
</g>
<g>
	<g>
		<path class="st2" d="M128.68,85.65v-2.88c6.48-0.62,7.2-1.13,7.2-8.13v-21.2c0-6.38-0.31-6.79-6.48-7.82v-2.47
			c5.35-0.93,10.19-2.26,14.61-4.12c0,4.32,0,8.64,0,12.96v22.64c0,7,0.72,7.51,7.41,8.13v2.88H128.68z M139.38,28.96
			c-2.88,0-5.45-2.57-5.45-5.45c0-3.29,2.57-5.66,5.56-5.66c2.88,0,5.25,2.37,5.25,5.66C144.73,26.38,142.36,28.96,139.38,28.96z"/>
		<path class="st2" d="M156.56,85.65v-2.88c6.48-0.62,7.2-1.13,7.2-8.13v-21.2c0-6.38-0.31-6.79-6.48-7.82v-2.47
			c5.35-0.93,10.19-2.26,14.61-4.12c0,4.32,0,8.64,0,12.96v22.64c0,7,0.72,7.51,7.41,8.13v2.88H156.56z M167.26,28.96
			c-2.88,0-5.45-2.57-5.45-5.45c0-3.29,2.57-5.66,5.56-5.66c2.88,0,5.25,2.37,5.25,5.66C172.61,26.38,170.24,28.96,167.26,28.96z"/>
		<path class="st2" d="M223.44,76.39c-4.53,5.97-11.42,10.49-17.59,10.49c-13.07,0-20.78-10.6-20.78-21.61
			c0-8.13,3.5-14.92,10.39-20.17c5.45-4.22,11.63-5.86,15.64-5.86c4.63,0,8.03,1.44,9.57,2.78c1.44,1.13,1.65,1.85,1.65,2.98
			c0,2.47-2.57,4.63-3.7,4.63c-0.51,0-0.93-0.21-1.96-1.03c-3.19-2.88-6.69-4.32-10.39-4.32c-6.79,0-12.76,5.76-12.76,16.46
			c-0.1,14.3,9.67,19.04,15.64,19.04c4.32,0,7.82-1.13,12.55-5.66L223.44,76.39z"/>
		<path class="st2" d="M251.94,39.24c12.86,0,22.43,9.77,22.43,23.05c0,16.67-12.35,24.59-22.43,24.59
			c-14.2,0-22.84-11.42-22.84-22.94C229.1,47.17,242.17,39.24,251.94,39.24z M250.71,42.74c-6.28,0-11.94,6.07-11.94,18.01
			c0,13.07,5.76,22.53,14.2,22.53c6.38,0,11.73-4.63,11.73-18.73C264.7,52.52,259.76,42.74,250.71,42.74z"/>
		<path class="st2" d="M311.21,85.65v-2.88c5.97-0.62,6.58-1.34,6.58-8.33V57.46c0-7.2-2.57-12.04-9.36-12.04
			c-4.22,0-8.23,2.47-11.42,5.35v24.08c0,7.1,0.62,7.31,6.69,7.92v2.88h-22.22v-2.88c6.79-0.72,7.41-1.13,7.41-7.92v-21.2
			c0-6.69-0.72-7-6.28-7.92v-2.68c5.04-0.82,10.08-2.16,14.4-4.12c0,2.37,0,5.66,0,8.13c2.06-1.44,4.32-2.98,7-4.73
			c2.88-1.85,5.56-3.09,8.54-3.09c8.23,0,13.38,6.07,13.38,16.05v19.55c0,7,0.62,7.31,6.58,7.92v2.88H311.21z"/>
		<path class="st2" d="M365.44,52.72c-1.85-5.97-4.53-10.08-10.8-10.08c-3.6,0-6.38,2.57-6.38,6.69c0,4.42,2.98,6.48,8.75,9.16
			c8.85,4.22,13.27,7.31,13.27,14.1c0,9.47-8.64,14.3-16.77,14.3c-5.35,0-10.08-1.65-12.24-2.88c-0.51-2.98-1.44-8.64-1.85-12.04
			l2.98-0.51c1.85,6.58,5.45,11.94,12.66,11.94c3.91,0,7.2-2.67,7.2-7c0-4.63-2.78-7-8.23-9.67c-7.2-3.5-13.07-6.79-13.07-14.2
			c0-7.51,6.38-13.27,16.05-13.27c4.32,0,7.82,1.03,9.88,1.34c0.31,2.47,1.03,8.95,1.54,11.42L365.44,52.72z"/>
	</g>
</g>
</svg>
